<svg width="138" height="80" viewBox="0 0 138 80" fill="none" xmlns="http://www.w3.org/2000/svg">
<path d="M68.5805 78.1757C57.2335 78.1757 46.2227 74.7881 36.7383 68.3787C27.5157 62.1461 20.1659 53.3806 15.4835 43.0296C15.0718 42.1201 15.4758 41.0492 16.3853 40.6378C17.295 40.2261 18.3656 40.6303 18.7769 41.5395C27.8512 61.5991 47.4005 74.5608 68.5805 74.5608C89.7605 74.5608 109.309 61.5991 118.384 41.5395C118.795 40.6305 119.866 40.2263 120.776 40.6378C121.685 41.0492 122.089 42.1201 121.677 43.0296C116.995 53.3806 109.645 62.1464 100.422 68.3787C90.9381 74.7878 79.9275 78.1757 68.5805 78.1757Z" fill="#0DC183"/>
<path d="M126.416 38.7881C124.442 43.4601 121.077 46.5015 118.899 45.5815C116.721 44.6614 116.556 40.128 118.53 35.456C119.96 32.0711 124.673 26.6901 127.161 23.9818C127.699 23.3968 128.672 23.8082 128.627 24.6014C128.42 28.2734 127.847 35.4034 126.416 38.7881Z" fill="#AAD880"/>
<path d="M127.161 23.9819C126.471 24.733 125.609 25.6904 124.695 26.7533C124.367 30.3554 123.784 34.6486 122.768 37.0529C121.378 40.3441 119.297 42.8239 117.427 43.6818C117.706 44.612 118.198 45.285 118.899 45.5815C121.077 46.5016 124.443 43.4601 126.417 38.7881C127.847 35.4032 128.42 28.2734 128.627 24.6014C128.672 23.808 127.699 23.3968 127.161 23.9819Z" fill="#80CB8E"/>
<path d="M113.196 49.175C113.345 53.9634 111.656 57.9012 109.424 57.9704C107.192 58.0396 105.262 54.2137 105.114 49.4253C105.006 45.9562 106.929 39.4792 107.996 36.1734C108.227 35.4594 109.225 35.4284 109.499 36.127C110.769 39.3603 113.089 45.7059 113.196 49.175Z" fill="#AAD880"/>
<path d="M99.6873 58.6369C101.574 63.0404 101.44 67.3232 99.3871 68.2027C97.3344 69.0822 94.141 66.2254 92.2542 61.8217C90.8873 58.6315 90.3118 51.8996 90.0983 48.4324C90.0524 47.6833 90.9698 47.2904 91.4803 47.8403C93.8435 50.3865 98.3204 55.4468 99.6873 58.6369Z" fill="#AAD880"/>
<path d="M99.6873 58.637C98.3204 55.4469 93.8435 50.3866 91.4803 47.8404C90.9698 47.2903 90.0524 47.6834 90.0983 48.4325C90.1593 49.4236 90.2501 50.6819 90.3803 52.0475C92.5866 54.604 95.0517 57.7372 96.0048 59.9615C97.3264 63.0461 97.6549 66.0695 97.0285 67.9072C97.8815 68.3703 98.6986 68.4975 99.3871 68.2026C101.44 67.3233 101.574 63.0405 99.6873 58.637Z" fill="#80CB8E"/>
<path d="M111.726 68.8939C107.203 67.3168 104.131 64.3289 104.867 62.2202C105.602 60.1117 109.865 59.6807 114.388 61.2581C117.666 62.4008 123.024 66.5164 125.728 68.6976C126.312 69.1686 125.983 70.1112 125.233 70.1171C121.759 70.1445 115.003 70.0366 111.726 68.8939Z" fill="#AAD880"/>
<path d="M97.3579 78.7722C92.8344 77.1951 89.7632 74.2072 90.4984 72.0984C91.2336 69.99 95.4967 69.559 100.02 71.1364C103.297 72.2791 108.656 76.3947 111.36 78.5759C111.944 79.0469 111.615 79.9895 110.865 79.9954C107.391 80.0228 100.635 79.9149 97.3579 78.7722Z" fill="#AAD880"/>
<path d="M125.728 68.6975C124.629 67.8112 123.092 66.6054 121.435 65.4095C117.783 65.4043 111.951 65.219 108.979 64.1828C107.413 63.6369 106.022 62.9222 104.902 62.1332C104.89 62.1623 104.877 62.1902 104.867 62.22C104.131 64.3285 107.203 67.3165 111.726 68.8938C115.003 70.0365 121.759 70.1444 125.233 70.1172C125.983 70.1113 126.312 69.1688 125.728 68.6975Z" fill="#80CB8E"/>
<path d="M111.36 78.5769C110.261 77.6907 108.724 76.4849 107.066 75.2889C103.415 75.2838 97.5824 75.0985 94.6105 74.0623C93.0451 73.5164 91.654 72.8016 90.534 72.0127C90.5223 72.0418 90.5087 72.0699 90.4984 72.0995C89.7632 74.208 92.8344 77.1959 97.3579 78.7733C100.635 79.9159 107.391 80.0239 110.865 79.9964C111.615 79.9905 111.943 79.048 111.36 78.5769Z" fill="#80CB8E"/>
<path d="M10.7318 38.7881C12.7058 43.4601 16.0715 46.5015 18.2491 45.5815C20.4268 44.6614 20.592 40.128 18.6181 35.456C17.1881 32.0711 12.4755 26.6901 9.9872 23.9818C9.44976 23.3968 8.47622 23.8082 8.52103 24.6014C8.72817 28.2734 9.30173 35.4034 10.7318 38.7881Z" fill="#AAD880"/>
<path d="M18.6181 35.456C17.1881 32.0711 12.4755 26.6901 9.9872 23.9818C9.44976 23.3968 8.47622 23.8082 8.52103 24.6014C8.57873 25.6244 8.66506 26.9158 8.79033 28.3198C11.1798 31.0933 13.9426 34.5971 14.9797 37.0516C16.3466 40.2871 16.687 43.4549 16.0442 45.4034C16.8395 45.775 17.5977 45.8566 18.2491 45.5815C20.427 44.6614 20.5922 40.128 18.6181 35.456Z" fill="#80CB8E"/>
<path d="M23.9524 49.175C23.8042 53.9634 25.4932 57.9012 27.7251 57.9704C29.9569 58.0396 31.8866 54.2137 32.0351 49.4253C32.1426 45.9562 30.2201 39.4792 29.1525 36.1734C28.9219 35.4594 27.9242 35.4284 27.65 36.127C26.3797 39.3603 24.0599 45.7059 23.9524 49.175Z" fill="#AAD880"/>
<path d="M113.202 49.1759C113.094 45.7068 110.775 39.3612 109.504 36.1279C109.23 35.4295 108.232 35.4605 108.002 36.1744C107.687 37.1477 107.299 38.3966 106.91 39.7617C108.03 42.946 109.179 46.7587 109.253 49.1759C109.355 52.4712 108.587 55.3634 107.371 56.8694C107.989 57.5903 108.692 57.994 109.429 57.9713C111.661 57.9023 113.35 53.9643 113.202 49.1759Z" fill="#80CB8E"/>
<path d="M29.1557 36.1732C28.9251 35.4591 27.9274 35.4283 27.6529 36.1267C27.2677 37.1073 26.7861 38.3748 26.2986 39.7607C27.2306 43.033 28.1655 46.9776 28.0897 49.4253C27.9902 52.6328 27.0911 55.4061 25.8379 56.8685C26.3889 57.5509 27.0322 57.9488 27.7282 57.9703C29.9601 58.0395 31.8898 54.2136 32.0383 49.4253C32.1457 45.9562 30.2233 39.479 29.1557 36.1732Z" fill="#80CB8E"/>
<path d="M37.4547 58.6369C35.5679 63.0404 35.7023 67.3232 37.755 68.2027C39.8076 69.0822 43.001 66.2254 44.8878 61.8217C46.2548 58.6315 46.8302 51.8996 47.0437 48.4324C47.0897 47.6833 46.1722 47.2904 45.6617 47.8403C43.2985 50.3865 38.8216 55.4468 37.4547 58.6369Z" fill="#AAD880"/>
<path d="M45.6493 47.8403C44.912 48.6346 43.9689 49.6739 42.9785 50.8248C42.6473 54.1538 42.0817 58.0198 41.1422 60.2125C39.8803 63.1572 38.0346 65.4083 36.3359 66.3148C36.5905 67.2395 37.0596 67.91 37.7423 68.2025C39.7949 69.082 42.9884 66.2252 44.8752 61.8215C46.2421 58.6314 46.8175 51.8994 47.031 48.4322C47.0772 47.6834 46.1598 47.2902 45.6493 47.8403Z" fill="#80CB8E"/>
<path d="M25.4176 68.8939C29.9412 67.3168 33.0124 64.3289 32.2772 62.2202C31.542 60.1117 27.2789 59.6807 22.7553 61.2581C19.4781 62.4008 14.1199 66.5164 11.416 68.6976C10.8322 69.1686 11.1606 70.1112 11.911 70.1171C15.385 70.1445 22.1404 70.0366 25.4176 68.8939Z" fill="#AAD880"/>
<path d="M39.7868 78.7722C44.3103 77.1951 47.3815 74.2072 46.6463 72.0984C45.9112 69.99 41.648 69.559 37.1244 71.1364C33.8473 72.2791 28.489 76.3947 25.7852 78.5759C25.2013 79.0469 25.5297 79.9895 26.2802 79.9954C29.7539 80.0228 36.5094 79.9149 39.7868 78.7722Z" fill="#AAD880"/>
<path d="M32.2773 62.22C31.9763 61.357 31.0837 60.7754 29.8245 60.4972C29.1301 62.3352 26.5149 64.3784 23.0407 65.5896C20.8637 66.3487 17.1525 66.6509 13.8875 66.7604C12.9459 67.4764 12.0967 68.1483 11.4161 68.6974C10.832 69.1685 11.1607 70.1111 11.9111 70.1169C15.3849 70.1441 22.1403 70.0362 25.4177 68.8935C29.9413 67.3166 33.0125 64.3287 32.2773 62.22Z" fill="#80CB8E"/>
<path d="M46.6463 72.0996C46.3454 71.2365 45.4528 70.655 44.1935 70.3768C43.4991 72.2148 40.8839 74.258 37.4097 75.4692C35.2327 76.2283 31.5216 76.5305 28.2566 76.64C27.3149 77.356 26.4657 78.0278 25.7852 78.577C25.2013 79.0481 25.5297 79.9906 26.2802 79.9965C29.7539 80.0237 36.5094 79.9158 39.7868 78.7734C44.3103 77.196 47.3815 74.2081 46.6463 72.0996Z" fill="#80CB8E"/>
<path d="M17.4848 20.1198C18.2402 20.1198 18.8525 19.5075 18.8525 18.7521C18.8525 17.9968 18.2402 17.3845 17.4848 17.3845C16.7295 17.3845 16.1172 17.9968 16.1172 18.7521C16.1172 19.5075 16.7295 20.1198 17.4848 20.1198Z" fill="#0064D3"/>
<path d="M120.515 16.9589C119.76 16.9589 119.147 16.3466 119.147 15.5913C119.147 14.836 119.76 14.2236 120.515 14.2236C121.27 14.2236 121.883 14.836 121.883 15.5913C121.883 16.3466 121.27 16.9589 120.515 16.9589Z" fill="#0064D3"/>
<path d="M1.98485 34.7081C2.74018 34.7081 3.3525 34.0958 3.3525 33.3404C3.3525 32.5851 2.74018 31.9728 1.98485 31.9728C1.22951 31.9728 0.617188 32.5851 0.617188 33.3404C0.617188 34.0958 1.22951 34.7081 1.98485 34.7081Z" fill="#0064D3"/>
<path d="M136.015 31.5473C135.26 31.5473 134.647 30.935 134.647 30.1797C134.647 29.4243 135.26 28.812 136.015 28.812C136.77 28.812 137.383 29.4243 137.383 30.1797C137.383 30.935 136.77 31.5473 136.015 31.5473Z" fill="#0064D3"/>
<path d="M102.006 18.2354H35.1429C31.7859 18.2354 29.0645 20.9568 29.0645 24.3139V72.9417C29.0645 76.2988 31.7859 79.0202 35.1429 79.0202H102.006C105.363 79.0202 108.085 76.2988 108.085 72.9417V24.3139C108.085 20.9568 105.363 18.2354 102.006 18.2354Z" fill="#FFDC21"/>
<path d="M29.0645 33.4316H108.085V39.5101H29.0645V33.4316Z" fill="white"/>
<path d="M68.5743 36.4709C78.6455 36.4709 86.8097 28.3066 86.8097 18.2354C86.8097 8.16428 78.6455 0 68.5743 0C58.5031 0 50.3389 8.16428 50.3389 18.2354C50.3389 28.3066 58.5031 36.4709 68.5743 36.4709Z" fill="#5AA591"/>
<path d="M66.685 26.4114C66.285 26.4138 65.8885 26.3371 65.5182 26.1858C65.148 26.0346 64.8112 25.8117 64.5272 25.5301L59.1477 20.1506C58.5754 19.5783 58.2539 18.8021 58.2539 17.9928C58.2539 17.1834 58.5754 16.4072 59.1477 15.8349C59.72 15.2626 60.4962 14.9411 61.3056 14.9411C62.1149 14.9411 62.8911 15.2626 63.4634 15.8349L66.685 19.0565L73.0674 12.6741C73.35 12.3892 73.6861 12.1631 74.0565 12.0088C74.4268 11.8545 74.8241 11.7751 75.2253 11.7751C75.6265 11.7751 76.0238 11.8545 76.3941 12.0088C76.7645 12.1631 77.1006 12.3892 77.3832 12.6741C77.9492 13.2435 78.2669 14.0138 78.2669 14.8167C78.2669 15.6197 77.9492 16.39 77.3832 16.9594L68.8125 25.5301C68.2464 26.0915 67.4823 26.4081 66.685 26.4114Z" fill="#E0EAF0"/>
<path d="M59.4573 63.824H41.2219C40.4158 63.824 39.6428 63.5038 39.0728 62.9339C38.5028 62.3639 38.1826 61.5908 38.1826 60.7848C38.1826 59.9787 38.5028 59.2057 39.0728 58.6357C39.6428 58.0657 40.4158 57.7455 41.2219 57.7455H59.4573C60.2633 57.7455 61.0364 58.0657 61.6064 58.6357C62.1763 59.2057 62.4965 59.9787 62.4965 60.7848C62.4965 61.5908 62.1763 62.3639 61.6064 62.9339C61.0364 63.5038 60.2633 63.824 59.4573 63.824Z" fill="#149C4F"/>
<path d="M95.9271 63.824H92.8879C92.0818 63.824 91.3088 63.5038 90.7388 62.9339C90.1688 62.3639 89.8486 61.5908 89.8486 60.7848C89.8486 59.9787 90.1688 59.2057 90.7388 58.6357C91.3088 58.0657 92.0818 57.7455 92.8879 57.7455H95.9271C96.7332 57.7455 97.5062 58.0657 98.0762 58.6357C98.6461 59.2057 98.9663 59.9787 98.9663 60.7848C98.9663 61.5908 98.6461 62.3639 98.0762 62.9339C97.5062 63.5038 96.7332 63.824 95.9271 63.824Z" fill="#F14E41"/>
<path d="M83.7699 63.824H80.7306C79.9246 63.824 79.1515 63.5038 78.5816 62.9339C78.0116 62.3639 77.6914 61.5908 77.6914 60.7848C77.6914 59.9787 78.0116 59.2057 78.5816 58.6357C79.1515 58.0657 79.9246 57.7455 80.7306 57.7455H83.7699C84.5759 57.7455 85.349 58.0657 85.919 58.6357C86.4889 59.2057 86.8091 59.9787 86.8091 60.7848C86.8091 61.5908 86.4889 62.3639 85.919 62.9339C85.349 63.5038 84.5759 63.824 83.7699 63.824Z" fill="#F14E41"/>
</svg>
